<?xml version="1.0" encoding="UTF-8" standalone="no"?>
<svg
   xmlns:dc="http://purl.org/dc/elements/1.1/"
   xmlns:cc="http://creativecommons.org/ns#"
   xmlns:rdf="http://www.w3.org/1999/02/22-rdf-syntax-ns#"
   xmlns:svg="http://www.w3.org/2000/svg"
   xmlns="http://www.w3.org/2000/svg"
   xmlns:sodipodi="http://sodipodi.sourceforge.net/DTD/sodipodi-0.dtd"
   xmlns:inkscape="http://www.inkscape.org/namespaces/inkscape"
   width="3123pt"
   height="2367pt"
   viewBox="0 0 3123 2367"
   version="1.1"
   id="svg2"
   inkscape:version="0.91 r13725"
   sodipodi:docname="invert-crop-1.svg">
  <metadata
     id="metadata20">
    <rdf:RDF>
      <cc:Work
         rdf:about="">
        <dc:format>image/svg+xml</dc:format>
        <dc:type
           rdf:resource="http://purl.org/dc/dcmitype/StillImage" />
        <dc:title></dc:title>
      </cc:Work>
    </rdf:RDF>
  </metadata>
  <defs
     id="defs18" />
  <sodipodi:namedview
     pagecolor="#ffffff"
     bordercolor="#666666"
     borderopacity="1"
     objecttolerance="10"
     gridtolerance="10"
     guidetolerance="10"
     inkscape:pageopacity="0"
     inkscape:pageshadow="2"
     inkscape:window-width="1920"
     inkscape:window-height="1028"
     id="namedview16"
     showgrid="false"
     inkscape:zoom="0.16920375"
     inkscape:cx="2827.1254"
     inkscape:cy="1475.5512"
     inkscape:window-x="0"
     inkscape:window-y="24"
     inkscape:window-maximized="1"
     inkscape:current-layer="svg2"
     fit-margin-top="0"
     fit-margin-left="0"
     fit-margin-right="0"
     fit-margin-bottom="0" />
  <path
     d="m 0,0 3123,0 0,817.11 c -33.33,3.54 -65.55,13.23 -98.13,20.64 -24.3,6.42 -50.04,8.52 -72.66,20.22 -37.86,19.02 -70.05,51.3 -85.35,91.2 -6,15.63 -9.33,35.13 1.5,49.5 11.76,15.78 32.37,20.46 50.85,22.92 43.59,6.03 87.84,10.38 129.6,25.17 27.48,8.61 55.14,20.91 74.19,43.29 l 0,487.38 c -48.09,1.2 -96.15,3.03 -144.21,3.96 -16.83,0.69 -34.38,-0.93 -50.16,6.12 -12.66,-9.57 -25.68,-19.53 -33.72,-33.54 -18.93,-32.43 -34.56,-66.78 -46.56,-102.36 -6.27,-17.67 -12.42,-36.39 -26.04,-49.89 -10.53,-10.35 -24.69,-15.51 -36.99,-23.22 -18.12,-9.99 -34.77,-23.52 -55.26,-28.44 -8.19,-1.74 -15.3,-6.24 -21.21,-12.06 -9.33,-8.85 -21.33,-14.16 -33.63,-17.34 -45.09,-11.22 -90.87,-20.31 -137.34,-22.71 -33.54,-2.07 -60.54,-24.9 -82.71,-48.12 -9.54,-10.47 -20.16,-19.8 -30.45,-29.49 -13.89,-13.53 -20.13,-34.26 -16.05,-53.22 10.29,-43.05 16.2,-87.36 32.01,-128.94 3.15,7.77 6.33,15.48 9.72,23.16 3.09,-5.37 8.28,-10.41 7.32,-17.16 -0.66,-16.68 -0.33,-33.87 -6.06,-49.74 -6.27,-2.46 -16.11,-2.97 -17.07,-11.46 -2.88,-30.42 3.48,-61.14 -0.03,-91.56 -1.41,-13.41 -12.15,-25.47 -7.83,-39.3 3.39,-16.62 16.11,-28.68 26.64,-41.07 -10.98,-10.23 -26.31,-15.54 -35.07,-27.99 -8.52,-14.31 0.81,-30.03 7.68,-42.81 9.33,-17.46 14.4,-36.63 20.67,-55.23 3.03,-9.99 11.97,-15.93 20.67,-20.64 5.28,-5.91 10.8,-13.17 19.38,-13.86 15.15,-0.6 30.09,3.15 45.21,3.45 22.11,0.81 43.74,-6.27 65.85,-4.71 16.02,0.9 29.43,10.95 45.06,13.56 13.95,2.43 28.23,3.36 42.42,3.36 5.49,0.63 10.86,-3.66 10.77,-9.42 0.93,-23.52 -5.82,-47.4 -0.66,-70.71 3.54,-14.73 26.97,-12 27.84,-27.96 -2.73,-14.79 -14.16,-26.55 -16.26,-41.7 -3.3,-20.61 -11.88,-40.23 -25.44,-56.16 -19.38,-22.83 -39.48,-45.06 -59.34,-67.47 -4.95,-6 -11.58,-10.14 -18.42,-13.59 -2.73,-17.55 -16.35,-30.06 -25.89,-44.16 -20.88,-29.73 -50.28,-52.44 -69.81,-83.22 -7.86,-12.72 -22.68,-23.55 -38.31,-19.11 -17.7,4.53 -36.12,7.41 -54.36,4.92 -68.37,-7.26 -117.09,-64.53 -183.12,-78.87 -24.81,-5.43 -50.28,-1.23 -75.36,-1.5 -17.94,0.72 -35.88,-1.35 -53.76,-0.03 -15.6,1.98 -23.28,17.28 -30.09,29.58 25.83,4.35 51.63,10.23 77.97,9.99 22.53,-0.06 45.48,-2.43 67.62,3.24 33,8.43 64.95,21.36 98.91,25.77 9.15,1.29 18.57,0.84 27.63,3.03 8.04,5.64 13.83,14.7 23.64,17.64 11.79,3.6 25.65,1.68 35.64,10.2 11.91,9.36 22.47,24.69 17.85,40.5 -7.95,31.29 -5.28,63.81 -3.42,95.67 0.93,16.53 3.45,33.36 0,49.77 -2.43,11.82 -11.46,21.66 -11.13,34.14 -0.66,30.99 -7.59,61.38 -16.35,90.96 -8.76,29.13 -8.76,59.79 -13.5,89.64 -4.26,16.8 -13.86,31.59 -19.38,47.97 -6.39,16.83 -5.46,35.88 -14.67,51.72 -11.7,21.75 -33.75,34.38 -51.33,50.7 -13.98,14.7 -36.66,11.31 -53.4,20.58 -7.14,7.71 -11.67,17.4 -16.68,26.55 -1.86,-5.52 -3.75,-11.04 -5.67,-16.53 -3.6,1.62 -7.5,2.73 -10.59,5.25 -3.48,7.35 -4.11,15.66 -6.06,23.49 -4.26,-3.93 -8.49,-7.83 -12.72,-11.73 -1.86,9.45 -6.27,19.5 -3,29.13 4.41,6.78 13.53,5.73 20.52,6.15 44.04,-0.12 88.11,-0.48 132.12,-1.89 12.66,0.09 26.31,-2.61 38.22,2.97 9.24,4.38 11.28,15.24 14.46,23.91 4.71,15.75 22.53,24.18 24.78,41.01 0.48,12.3 -4.26,24.06 -4.98,36.27 -2.01,27.84 1.26,56.22 -5.22,83.64 -9.66,41.58 -29.76,79.65 -49.86,116.94 -3.63,6.54 -8.79,14.7 -17.49,13.59 -13.2,-4.08 -24.48,-14.49 -39.09,-13.59 -15.72,-1.59 -27.51,10.05 -40.26,17.07 -19.35,11.13 -41.97,16.83 -64.29,14.97 -15.87,-1.38 -32.16,-2.37 -47.64,2.16 -16.53,4.83 -33.87,8.55 -51.15,6.09 -14.4,-1.47 -27.81,-8.49 -42.45,-8.01 -37.23,1.56 -73.92,9.81 -111.21,10.38 -21.3,0.48 -42.24,-3.96 -62.67,-9.39 -23.67,-6.27 -48.27,-3.3 -72.36,-2.55 -12.81,0.18 -23.19,8.67 -34.74,13.02 -18.06,9.03 -38.58,2.97 -57.51,1.26 -12.93,-2.22 -26.55,-1.38 -38.91,-6.12 -11.79,-5.67 -6.03,-21.96 -14.19,-30.42 -11.55,-13.53 -30.12,-24.69 -48.27,-18.03 -15.87,6.42 -29.82,17.1 -42.03,28.98 -7.68,7.32 -17.07,13.32 -22.29,22.8 -5.43,11.31 -5.04,24.93 -12.78,35.19 -9.66,13.56 -28.11,21.42 -44.28,15.84 -9.36,-2.88 -16.83,-10.62 -26.73,-11.67 -7.26,0.3 -10.44,7.83 -13.95,12.99 -4.56,8.16 -11.31,15.24 -20.22,18.6 -18.21,7.2 -37.11,12.81 -56.22,17.04 -20.61,4.83 -38.82,-17.4 -35.34,-36.96 5.7,-35.67 13.47,-71.04 25.29,-105.21 -6.96,-12.84 -13.92,-25.68 -21,-38.46 -5.55,15.03 -9.15,30.93 -16.38,45.3 -9.27,11.25 -24.9,14.55 -35.04,24.93 -3.12,4.71 -4.53,10.23 -6.6,15.42 10.74,1.41 21.57,0.21 31.98,-2.67 -1.47,19.41 -4.41,39 -1.53,58.44 2.01,9.87 -2.25,19.65 -0.84,29.46 4.47,15.87 16.47,27.9 23.97,42.24 6.3,12.12 0.72,27.39 -10.89,33.96 -32.4,21.45 -65.88,42.72 -103.62,53.31 -51.36,15.78 -103.38,29.4 -155.73,41.43 -40.41,8.97 -81.81,12.09 -123.09,13.44 -19.35,0.81 -37.68,-7.05 -56.91,-7.59 -26.01,-1.02 -52.05,-0.45 -78.06,-0.15 -12.15,1.2 -20.73,-9.9 -32.52,-10.8 -21.03,-1.89 -42.24,2.31 -63.27,-0.09 -12.66,-3.36 -16.83,-17.82 -26.46,-25.32 -7.47,-6.69 -18.09,-5.64 -27.36,-5.64 -33.15,0.99 -66.36,-0.42 -99.51,1.41 -23.73,1.77 -43.11,23.13 -44.04,46.65 -1.38,20.61 10.5,39.84 7.14,60.63 -1.14,19.05 -12.75,34.89 -24.63,48.9 -18.45,23.43 -36.6,47.13 -54.75,70.8 -17.88,25.77 -27.78,56.79 -49.47,80.04 -10.62,11.82 -24.81,19.35 -37.95,27.99 -16.86,10.74 -34.05,22.14 -53.91,26.34 -12.96,2.91 -26.28,0.9 -39.39,1.98 -10.14,0.75 -20.16,2.67 -30.18,4.26 -6.03,8.79 -10.89,18.63 -18.9,25.86 -11.64,9 -26.82,10.59 -40.8,13.41 -26.7,4.86 -51.54,16.56 -74.85,30.09 -11.25,6.57 -24.09,9.57 -35.64,15.51 -8.73,4.35 -14.34,14.04 -24.27,16.02 -13.17,-7.26 -20.67,-21.12 -31.53,-31.08 -1.26,0.66 -3.81,2.01 -5.07,2.67 -0.42,16.95 2.28,34.17 -2.55,50.79 L 0,0 Z"
     id="path4"
     inkscape:connector-curvature="0"
     style="fill:#fefefe" />
  <path
     d="m 2073.03,186.78 c 6.81,-12.3 14.49,-27.6 30.09,-29.58 17.88,-1.32 35.82,0.75 53.76,0.03 25.08,0.27 50.55,-3.93 75.36,1.5 66.03,14.34 114.75,71.61 183.12,78.87 18.24,2.49 36.66,-0.39 54.36,-4.92 15.63,-4.44 30.45,6.39 38.31,19.11 19.53,30.78 48.93,53.49 69.81,83.22 9.54,14.1 23.16,26.61 25.89,44.16 6.84,3.45 13.47,7.59 18.42,13.59 19.86,22.41 39.96,44.64 59.34,67.47 13.56,15.93 22.14,35.55 25.44,56.16 2.1,15.15 13.53,26.91 16.26,41.7 -0.87,15.96 -24.3,13.23 -27.84,27.96 -5.16,23.31 1.59,47.19 0.66,70.71 0.09,5.76 -5.28,10.05 -10.77,9.42 -14.19,0 -28.47,-0.93 -42.42,-3.36 -15.63,-2.61 -29.04,-12.66 -45.06,-13.56 -22.11,-1.56 -43.74,5.52 -65.85,4.71 -15.12,-0.3 -30.06,-4.05 -45.21,-3.45 -8.58,0.69 -14.1,7.95 -19.38,13.86 -8.7,4.71 -17.64,10.65 -20.67,20.64 -6.27,18.6 -11.34,37.77 -20.67,55.23 -6.87,12.78 -16.2,28.5 -7.68,42.81 8.76,12.45 24.09,17.76 35.07,27.99 -10.53,12.39 -23.25,24.45 -26.64,41.07 -4.32,13.83 6.42,25.89 7.83,39.3 3.51,30.42 -2.85,61.14 0.03,91.56 0.96,8.49 10.8,9 17.07,11.46 5.73,15.87 5.4,33.06 6.06,49.74 0.96,6.75 -4.23,11.79 -7.32,17.16 -3.39,-7.68 -6.57,-15.39 -9.72,-23.16 -15.81,41.58 -21.72,85.89 -32.01,128.94 -4.08,18.96 2.16,39.69 16.05,53.22 10.29,9.69 20.91,19.02 30.45,29.49 22.17,23.22 49.17,46.05 82.71,48.12 46.47,2.4 92.25,11.49 137.34,22.71 12.3,3.18 24.3,8.49 33.63,17.34 5.91,5.82 13.02,10.32 21.21,12.06 20.49,4.92 37.14,18.45 55.26,28.44 12.3,7.71 26.46,12.87 36.99,23.22 13.62,13.5 19.77,32.22 26.04,49.89 12,35.58 27.63,69.93 46.56,102.36 8.04,14.01 21.06,23.97 33.72,33.54 15.78,-7.05 33.33,-5.43 50.16,-6.12 48.06,-0.93 96.12,-2.76 144.21,-3.96 l 0,34.86 c -37.11,3.63 -74.22,6.9 -111.27,11.04 -14.67,1.41 -23.79,16.2 -25.83,29.58 -2.34,14.82 9.06,26.55 13.23,39.93 18.45,46.95 7.41,98.16 15.63,146.76 1.68,12.75 3.45,25.62 2.52,38.55 -0.84,15.06 -7.44,29.4 -6.06,44.64 2.01,27.42 15.96,54.6 39.06,70.08 21.78,13.8 47.76,18.6 72.72,23.49 l 0,139.59 c -38.76,12.9 -78.48,31.17 -120.33,24.72 -10.05,-1.86 -19.56,3.87 -29.52,2.94 -8.4,-2.28 -8.61,-12.03 -10.29,-18.87 -16.17,-6.84 -37.38,-9.27 -45.18,-27.39 3.36,-6.33 7.98,-12.3 9.12,-19.5 0.99,-9.72 -4.53,-18.3 -9.03,-26.4 -0.57,11.61 -0.51,23.22 -0.33,34.86 -1.32,1.68 -2.64,3.42 -3.9,5.16 -14.64,-18.21 -33.48,-32.55 -48.15,-50.67 -3.09,-16.65 -7.53,-33.06 -11.28,-49.59 -4.47,-17.64 7.05,-33.69 6.39,-51.21 1.14,-41.01 16.56,-79.5 30.42,-117.54 19.59,-63.6 31.23,-130.56 25.53,-197.25 -1.83,-15 1.53,-29.82 4.74,-44.34 -10.17,-15.84 -19.47,-32.22 -30.3,-47.61 -4.74,-7.5 -14.16,-10.08 -19.26,-17.04 -4.44,-11.64 -5.58,-24.6 -13.02,-34.98 -18.24,-27.15 -29.76,-57.93 -45.09,-86.64 -5.73,-10.59 -13.11,-21.36 -24.6,-26.1 -13.8,-5.67 -29.55,-3 -42.81,2.82 -12.78,5.01 -17.76,20.85 -31.5,24.09 -14.01,4.23 -26.01,-5.85 -38.64,-9.84 -30.87,-11.49 -64.83,-2.64 -96.09,-12.09 -12.15,-3.21 -22.77,-11.28 -35.61,-11.79 -10.92,-0.75 -21.9,-1.35 -32.55,-4.02 -1.26,-9.54 -2.22,-19.14 -3.18,-28.71 -11.91,-1.14 -24.15,-2.97 -34.59,-9.21 -10.83,-5.73 -18.45,-15.54 -27.48,-23.46 -8.85,-7.44 -21.27,-7.77 -30.69,-14.04 -11.07,-9.24 -4.14,-25.89 -11.25,-36.96 -15.57,-14.37 -37.47,-20.61 -58.38,-19.95 -33.36,1.08 -67.83,4.11 -97.89,19.86 -15.63,8.55 -32.4,17.64 -41.88,33.36 -6.66,9.21 -11.88,20.34 -22.02,26.31 -7.11,4.47 -15.39,8.19 -19.62,15.9 -5.19,8.43 -4.98,18.69 -5.1,28.23 0.51,38.13 -15.45,73.59 -23.22,110.31 -5.79,5.34 -12.87,10.68 -14.16,18.99 -2.16,12.63 -0.48,25.59 -3.03,38.22 -3.93,20.31 -6.18,41.16 -13.53,60.66 -4.89,13.29 -14.76,24.45 -17.31,38.64 -5.37,26.52 -11.55,53.01 -20.7,78.51 -3.09,7.14 -5.43,15.63 -12.48,19.89 -6.54,-0.03 -12.24,-3.84 -18.51,-5.07 -8.61,1.5 -15.06,8.58 -20.22,15.21 -7.71,9.69 -5.55,23.16 -11.07,33.81 -3.36,4.65 -8.58,7.44 -12.36,11.67 -2.61,4.8 -3.51,10.26 -5.79,15.21 -13.35,5.43 -27.33,9.39 -40.38,15.72 -6.06,-0.99 -12.12,-2.28 -18.24,-2.43 -13.14,8.43 -23.73,22.65 -21.3,39.12 8.85,-7.38 18.48,-15.78 30.81,-15.3 17.31,0.33 33.93,6.42 51.3,7.02 -2.28,-9.87 -4.77,-19.68 -7.35,-29.49 13.83,3.33 24.27,-6.15 34.74,-13.32 10.56,-2.37 19.26,9.12 29.64,7.74 -2.79,-5.1 -6.09,-9.87 -9.36,-14.64 6.54,-7.68 14.49,-15.03 17.07,-25.14 2.46,-8.88 -3,-17.01 -6.57,-24.66 8.31,-5.55 16.65,-11.07 24.99,-16.59 0.48,20.49 4.23,42.3 -5.1,61.5 -9,18.09 -17.55,38.16 -35.16,49.59 -11.85,8.1 -20.25,19.89 -28.86,31.14 -3.18,-4.47 -6.33,-8.91 -9.48,-13.35 -2.52,8.43 -3.96,17.46 -8.58,25.11 -5.79,7.26 -14.91,10.56 -22.59,15.27 -0.66,-11.58 -1.56,-23.19 -4.02,-34.53 -3.75,12.9 -4.38,26.43 -7.8,39.39 -1.38,-0.03 -4.11,-0.12 -5.46,-0.15 -3.39,-9.18 -5.43,-18.75 -7.98,-28.14 -2.34,13.29 3.93,36.66 -14.76,39.6 -19.83,4.11 -37.08,16.26 -57.39,18.45 -25.8,3.45 -51.96,0.72 -77.82,3.54 -1.98,-7.2 -2.49,-15.09 -6.57,-21.51 -4.38,-2.46 -9.63,-2.19 -14.4,-3.12 4.05,-12.27 7.86,-24.63 11.73,-36.96 5.01,3.6 10.05,7.23 15.15,10.77 1.41,-5.22 2.73,-10.47 4.05,-15.66 3.48,3 6.99,5.97 10.53,9 5.52,-11.46 14.22,-23.58 10.26,-36.93 -2.01,-8.25 -7.29,-20.31 -17.7,-18.15 -5.67,7.92 -5.43,20.1 -14.73,25.14 -6.21,4.56 -14.04,-1.65 -16.95,-7.29 -0.75,-9.36 6.57,-16.53 12.06,-23.16 -3.84,-12 -2.94,-25.32 5.49,-35.19 32.13,-42.33 66.06,-84.03 107.82,-117.3 18.39,-14.76 30.78,-35.16 46.77,-52.2 8.97,-5.55 20.61,-6 29.13,-12.81 23.22,-17.4 31.77,-47.4 53.73,-66.12 25.29,-22.89 36.18,-56.19 47.73,-87.21 13.83,-30.36 23.31,-62.79 41.01,-91.29 9.3,-14.01 9.87,-32.37 4.5,-47.94 -2.04,-6.24 -7.32,-12 -14.37,-11.31 -30.42,0.84 -60.69,4.5 -91.11,5.34 -5.43,-6.57 -10.65,-14.97 -19.8,-16.44 -15.27,-2.79 -27.33,9.78 -41.85,11.43 -8.82,-0.06 -16.5,-5.04 -24.24,-8.64 0.87,-7.44 1.77,-14.91 2.7,-22.32 3.75,-1.92 7.5,-3.84 11.31,-5.73 -6.6,-8.28 -11.97,-17.97 -20.61,-24.3 -3.6,-2.67 -7.92,0.45 -11.61,1.2 -10.65,3.69 -21.03,9.24 -32.52,9.45 -20.61,0.33 -39.48,-9.9 -59.82,-11.43 -4.2,2.16 -7.86,5.13 -11.67,7.89 4.26,5.04 6.72,13.14 14.01,14.55 15.84,3.54 32.07,5.04 48.24,6.51 12.93,1.32 25.86,-1.38 38.82,-0.27 12.18,-0.18 14.88,19.41 5.46,24.66 -9.57,2.64 -19.5,3.75 -29.31,4.77 -7.05,1.68 -11.58,-4.71 -16.53,-8.43 -14.64,-0.72 -29.37,-0.48 -43.74,2.73 -54.39,10.68 -110.58,8.97 -164.61,21.84 -22.44,4.53 -37.83,22.44 -55.8,34.98 -19.32,12.96 -39.6,24.33 -59.37,36.54 -15.54,9.42 -29.82,20.85 -45.54,30.03 -33.69,20.13 -59.55,50.16 -86.85,77.76 -27.33,27.78 -57.57,52.41 -87.18,77.67 -20.22,17.04 -39.96,34.89 -62.28,49.2 -30.06,19.2 -63.63,31.71 -95.4,47.67 -10.65,5.37 -20.25,12.63 -30.99,17.88 -26.73,13.02 -56.49,19.23 -82.05,34.71 -19.08,11.31 -32.94,29.01 -48.69,44.25 -28.65,28.77 -66.15,45.84 -99.27,68.61 -8.37,5.76 -16.23,12.27 -25.02,17.37 -7.95,4.8 -17.52,4.98 -26.43,6.51 -0.72,-1.83 -2.16,-5.46 -2.88,-7.29 18.12,-16.44 39.21,-31.65 49.14,-54.78 6.6,-13.8 19.92,-22.2 30.33,-32.79 30.51,-30.06 64.32,-57.12 102.24,-77.28 32.43,-17.25 66.66,-30.81 99.06,-48.12 12.84,-6.6 24.81,-14.88 35.49,-24.6 35.4,-32.64 70.38,-65.7 105.78,-98.37 23.94,-22.08 49.56,-42.39 72.84,-65.22 13.02,-11.4 5.76,-35.52 -11.25,-38.16 -14.52,-4.53 -27.42,5.01 -39.54,11.49 -47.37,27.21 -95.94,52.62 -146.97,72.33 -47.43,18.9 -98.31,26.37 -146.85,41.73 -18.03,6.57 -37.56,3.57 -56.34,4.26 -13.47,0.54 -25.35,-6.51 -34.95,-15.27 -8.04,3.18 -16.29,6.75 -25.11,6.42 -20.64,-0.63 -39.33,-11.88 -60.12,-11.43 -34.38,0.12 -67.41,-15.18 -101.97,-10.29 -16.17,1.65 -31.08,9.33 -43.47,19.59 -26.52,21.33 -50.19,45.96 -72.96,71.19 -23.49,25.89 -41.76,57.21 -48.81,91.71 -7.35,32.22 -3.21,65.37 -0.09,97.83 3,26.28 7.26,53.49 22.08,76.02 24.87,41.1 62.76,71.64 100.32,100.59 16.77,12.36 31.41,28.11 50.82,36.54 18.12,8.25 38.04,11.4 56.52,18.75 5.49,2.01 10.89,4.38 16.71,5.34 11.25,-4.44 22.89,-10.53 35.37,-6.93 26.34,6.27 54.42,13.92 81.06,4.53 16.23,-7.08 34.59,-2.31 50.94,-8.88 28.65,-9.87 56.91,-20.91 86.4,-28.11 26.49,-6.81 47.97,-24.54 72.66,-35.37 45.09,-17.34 88.32,-39.06 131.97,-59.7 36.42,-20.31 74.4,-37.65 112.77,-53.91 26.97,-11.73 54.39,-22.86 79.59,-38.19 50.07,-32.07 94.65,-71.88 143.79,-105.3 13.89,-8.97 29.91,-13.77 44.43,-21.54 10.26,-5.19 15.69,-15.84 23.04,-24.09 1.92,8.16 3.96,17.52 -1.08,25.05 -9.42,15.6 -17.76,31.86 -28.05,46.92 -12.54,18.69 -32.67,29.79 -50.07,43.35 -35.49,25.59 -70.62,53.58 -112.68,67.65 -27.06,9.87 -56.91,17.19 -77.04,39.3 -15.39,14.82 -21.96,35.58 -28.05,55.41 -4.8,16.5 -14.7,30.84 -26.31,43.29 -37.56,40.44 -71.43,84.42 -111.93,122.1 -19.41,18.03 -40.26,35.01 -64.11,46.8 -17.19,8.79 -38.07,9.18 -52.95,22.5 -2.73,-3.21 -5.37,-6.48 -7.92,-9.78 -2.28,8.97 -4.56,19.32 -13.2,24.39 -13.02,7.47 -28.17,9.84 -42.45,13.8 -28.8,6.45 -57.54,13.65 -86.88,17.25 -34.17,3.99 -68.37,-7.29 -96.99,-25.5 -24.6,-15.21 -47.58,-33.09 -73.26,-46.5 -33.27,-16.77 -64.86,-39.6 -84.33,-72 -14.16,-23.97 -30.06,-47.43 -51.57,-65.46 -14.22,-11.58 -26.46,-25.77 -42.51,-34.95 -9.03,-5.46 -19.77,-5.88 -30,-6.72 -8.97,-0.24 -15.12,-7.71 -21.78,-12.72 1.35,-10.05 6,-19.14 13.65,-25.83 5.31,-3.72 3.81,-10.11 3.45,-15.57 -6.57,2.07 -13.14,4.23 -19.68,6.45 -2.1,-15.54 -10.05,-30.6 -22.98,-39.69 -12.99,-4.98 -25.86,3.75 -36.9,9.75 1.11,13.26 3.48,26.49 8.82,38.76 8.49,1.02 16.98,2.04 25.47,3.12 -0.03,2.67 -0.03,5.4 -0.03,8.13 -36.27,2.13 -73.17,-0.33 -107.64,-12.45 -6.87,-10.17 -13.17,-20.73 -19.74,-31.05 -4.92,-7.23 -3.33,-16.11 -2.64,-24.21 -20.37,-9.09 -40.14,-21.39 -62.97,-22.83 -28.44,-2.07 -57.39,1.08 -84.6,9.69 -12.6,3.87 -25.5,6.75 -38.61,8.16 -38.49,4.26 -74.22,20.13 -110.82,31.8 -13.17,3.75 -19.38,17.25 -30.21,24.51 -10.8,2.34 -21.66,-2.25 -32.52,-2.19 -4.83,10.23 6.3,16.2 12.3,22.29 6.72,5.37 8.79,15.51 4.98,23.19 -3.9,6.18 -9.81,10.71 -14.97,15.81 -6.06,-10.29 -12.03,-20.58 -18.09,-30.84 -9.51,-2.1 -20.04,-4.02 -26.25,-12.36 l 0,-7.8 c 4.83,-16.62 2.13,-33.84 2.55,-50.79 1.26,-0.66 3.81,-2.01 5.07,-2.67 10.86,9.96 18.36,23.82 31.53,31.08 9.93,-1.98 15.54,-11.67 24.27,-16.02 11.55,-5.94 24.39,-8.94 35.64,-15.51 23.31,-13.53 48.15,-25.23 74.85,-30.09 13.98,-2.82 29.16,-4.41 40.8,-13.41 8.01,-7.23 12.87,-17.07 18.9,-25.86 10.02,-1.59 20.04,-3.51 30.18,-4.26 13.11,-1.08 26.43,0.93 39.39,-1.98 19.86,-4.2 37.05,-15.6 53.91,-26.34 13.14,-8.64 27.33,-16.17 37.95,-27.99 21.69,-23.25 31.59,-54.27 49.47,-80.04 18.15,-23.67 36.3,-47.37 54.75,-70.8 11.88,-14.01 23.49,-29.85 24.63,-48.9 3.36,-20.79 -8.52,-40.02 -7.14,-60.63 0.93,-23.52 20.31,-44.88 44.04,-46.65 33.15,-1.83 66.36,-0.42 99.51,-1.41 9.27,0 19.89,-1.05 27.36,5.64 9.63,7.5 13.8,21.96 26.46,25.32 21.03,2.4 42.24,-1.8 63.27,0.09 11.79,0.9 20.37,12 32.52,10.8 26.01,-0.3 52.05,-0.87 78.06,0.15 19.23,0.54 37.56,8.4 56.91,7.59 41.28,-1.35 82.68,-4.47 123.09,-13.44 52.35,-12.03 104.37,-25.65 155.73,-41.43 37.74,-10.59 71.22,-31.86 103.62,-53.31 11.61,-6.57 17.19,-21.84 10.89,-33.96 -7.5,-14.34 -19.5,-26.37 -23.97,-42.24 -1.41,-9.81 2.85,-19.59 0.84,-29.46 -2.88,-19.44 0.06,-39.03 1.53,-58.44 -10.41,2.88 -21.24,4.08 -31.98,2.67 2.07,-5.19 3.48,-10.71 6.6,-15.42 10.14,-10.38 25.77,-13.68 35.04,-24.93 7.23,-14.37 10.83,-30.27 16.38,-45.3 7.08,12.78 14.04,25.62 21,38.46 -11.82,34.17 -19.59,69.54 -25.29,105.21 -3.48,19.56 14.73,41.79 35.34,36.96 19.11,-4.23 38.01,-9.84 56.22,-17.04 8.91,-3.36 15.66,-10.44 20.22,-18.6 3.51,-5.16 6.69,-12.69 13.95,-12.99 9.9,1.05 17.37,8.79 26.73,11.67 16.17,5.58 34.62,-2.28 44.28,-15.84 7.74,-10.26 7.35,-23.88 12.78,-35.19 5.22,-9.48 14.61,-15.48 22.29,-22.8 12.21,-11.88 26.16,-22.56 42.03,-28.98 18.15,-6.66 36.72,4.5 48.27,18.03 8.16,8.46 2.4,24.75 14.19,30.42 12.36,4.74 25.98,3.9 38.91,6.12 18.93,1.71 39.45,7.77 57.51,-1.26 11.55,-4.35 21.93,-12.84 34.74,-13.02 24.09,-0.75 48.69,-3.72 72.36,2.55 20.43,5.43 41.37,9.87 62.67,9.39 37.29,-0.57 73.98,-8.82 111.21,-10.38 14.64,-0.48 28.05,6.54 42.45,8.01 17.28,2.46 34.62,-1.26 51.15,-6.09 15.48,-4.53 31.77,-3.54 47.64,-2.16 22.32,1.86 44.94,-3.84 64.29,-14.97 12.75,-7.02 24.54,-18.66 40.26,-17.07 14.61,-0.9 25.89,9.51 39.09,13.59 8.7,1.11 13.86,-7.05 17.49,-13.59 20.1,-37.29 40.2,-75.36 49.86,-116.94 6.48,-27.42 3.21,-55.8 5.22,-83.64 0.72,-12.21 5.46,-23.97 4.98,-36.27 -2.25,-16.83 -20.07,-25.26 -24.78,-41.01 -3.18,-8.67 -5.22,-19.53 -14.46,-23.91 -11.91,-5.58 -25.56,-2.88 -38.22,-2.97 -44.01,1.41 -88.08,1.77 -132.12,1.89 -6.99,-0.42 -16.11,0.63 -20.52,-6.15 -3.27,-9.63 1.14,-19.68 3,-29.13 4.23,3.9 8.46,7.8 12.72,11.73 1.95,-7.83 2.58,-16.14 6.06,-23.49 3.09,-2.52 6.99,-3.63 10.59,-5.25 1.92,5.49 3.81,11.01 5.67,16.53 5.01,-9.15 9.54,-18.84 16.68,-26.55 16.74,-9.27 39.42,-5.88 53.4,-20.58 17.58,-16.32 39.63,-28.95 51.33,-50.7 9.21,-15.84 8.28,-34.89 14.67,-51.72 5.52,-16.38 15.12,-31.17 19.38,-47.97 4.74,-29.85 4.74,-60.51 13.5,-89.64 8.76,-29.58 15.69,-59.97 16.35,-90.96 -0.33,-12.48 8.7,-22.32 11.13,-34.14 3.45,-16.41 0.93,-33.24 0,-49.77 -1.86,-31.86 -4.53,-64.38 3.42,-95.67 4.62,-15.81 -5.94,-31.14 -17.85,-40.5 -9.99,-8.52 -23.85,-6.6 -35.64,-10.2 -9.81,-2.94 -15.6,-12 -23.64,-17.64 -9.06,-2.19 -18.48,-1.74 -27.63,-3.03 -33.96,-4.41 -65.91,-17.34 -98.91,-25.77 -22.14,-5.67 -45.09,-3.3 -67.62,-3.24 -26.34,0.24 -52.14,-5.64 -77.97,-9.99 z"
     id="path6"
     inkscape:connector-curvature="0"
     style="fill:#363034" />
  <path
     d="m 2445.51,305.79 c 0.36,-16.62 20.85,-27.18 35.49,-22.05 28.17,12.15 50.37,34.17 71.97,55.32 15.18,15.12 32.31,28.08 49.29,41.1 2.85,10.26 5.55,20.91 12.09,29.58 27.3,37.14 50.52,77.22 69.72,119.13 5.31,10.17 4.83,25.2 -6.51,31.02 -12.15,5.64 -26.13,2.28 -39.06,3.15 5.97,14.13 14.76,27.51 16.89,42.93 1.59,12.9 -8.49,25.38 -21.27,26.97 -12.51,1.14 -26.4,1.89 -37.59,-4.8 -7.86,-4.53 -11.01,-13.47 -14.64,-21.24 -10.53,-3.96 -21.18,-7.59 -31.86,-11.07 -3.9,2.91 -7.11,7.26 -12.06,8.25 -9.96,-1.2 -16.71,-11.34 -27.18,-10.56 -15.45,-0.39 -32.28,4.89 -46.56,-3.42 -16.41,-9.51 -23.55,-28.38 -29.64,-45.33 -6.69,-18.06 -3.6,-37.56 -0.75,-56.04 3.24,-18.78 1.89,-37.83 2.85,-56.76 1.68,-42.15 5.61,-84.15 8.82,-126.18 z"
     id="path8"
     inkscape:connector-curvature="0"
     style="fill:#fefefe" />
  <path
     d="m 3024.87,837.75 c 32.58,-7.41 64.8,-17.1 98.13,-20.64 l 0,272.94 c -19.05,-22.38 -46.71,-34.68 -74.19,-43.29 -41.76,-14.79 -86.01,-19.14 -129.6,-25.17 -18.48,-2.46 -39.09,-7.14 -50.85,-22.92 -10.83,-14.37 -7.5,-33.87 -1.5,-49.5 15.3,-39.9 47.49,-72.18 85.35,-91.2 22.62,-11.7 48.36,-13.8 72.66,-20.22 z"
     id="path10"
     inkscape:connector-curvature="0"
     style="fill:#363034" />
  <path
     d="m 1803.63,1267.71 c 3.81,-2.76 7.47,-5.73 11.67,-7.89 20.34,1.53 39.21,11.76 59.82,11.43 11.49,-0.21 21.87,-5.76 32.52,-9.45 3.69,-0.75 8.01,-3.87 11.61,-1.2 8.64,6.33 14.01,16.02 20.61,24.3 -3.81,1.89 -7.56,3.81 -11.31,5.73 -0.93,7.41 -1.83,14.88 -2.7,22.32 7.74,3.6 15.42,8.58 24.24,8.64 14.52,-1.65 26.58,-14.22 41.85,-11.43 9.15,1.47 14.37,9.87 19.8,16.44 30.42,-0.84 60.69,-4.5 91.11,-5.34 7.05,-0.69 12.33,5.07 14.37,11.31 5.37,15.57 4.8,33.93 -4.5,47.94 -17.7,28.5 -27.18,60.93 -41.01,91.29 -11.55,31.02 -22.44,64.32 -47.73,87.21 -21.96,18.72 -30.51,48.72 -53.73,66.12 -8.52,6.81 -20.16,7.26 -29.13,12.81 -15.99,17.04 -28.38,37.44 -46.77,52.2 -41.76,33.27 -75.69,74.97 -107.82,117.3 -8.43,9.87 -9.33,23.19 -5.49,35.19 -5.49,6.63 -12.81,13.8 -12.06,23.16 2.91,5.64 10.74,11.85 16.95,7.29 9.3,-5.04 9.06,-17.22 14.73,-25.14 10.41,-2.16 15.69,9.9 17.7,18.15 3.96,13.35 -4.74,25.47 -10.26,36.93 -3.54,-3.03 -7.05,-6 -10.53,-9 -1.32,5.19 -2.64,10.44 -4.05,15.66 -5.1,-3.54 -10.14,-7.17 -15.15,-10.77 -3.87,12.33 -7.68,24.69 -11.73,36.96 4.77,0.93 10.02,0.66 14.4,3.12 4.08,6.42 4.59,14.31 6.57,21.51 25.86,-2.82 52.02,-0.09 77.82,-3.54 20.31,-2.19 37.56,-14.34 57.39,-18.45 18.69,-2.94 12.42,-26.31 14.76,-39.6 2.55,9.39 4.59,18.96 7.98,28.14 1.35,0.03 4.08,0.12 5.46,0.15 3.42,-12.96 4.05,-26.49 7.8,-39.39 2.46,11.34 3.36,22.95 4.02,34.53 7.68,-4.71 16.8,-8.01 22.59,-15.27 4.62,-7.65 6.06,-16.68 8.58,-25.11 3.15,4.44 6.3,8.88 9.48,13.35 8.61,-11.25 17.01,-23.04 28.86,-31.14 17.61,-11.43 26.16,-31.5 35.16,-49.59 9.33,-19.2 5.58,-41.01 5.1,-61.5 -8.34,5.52 -16.68,11.04 -24.99,16.59 3.57,7.65 9.03,15.78 6.57,24.66 -2.58,10.11 -10.53,17.46 -17.07,25.14 3.27,4.77 6.57,9.54 9.36,14.64 -10.38,1.38 -19.08,-10.11 -29.64,-7.74 -10.47,7.17 -20.91,16.65 -34.74,13.32 2.58,9.81 5.07,19.62 7.35,29.49 -17.37,-0.6 -33.99,-6.69 -51.3,-7.02 -12.33,-0.48 -21.96,7.92 -30.81,15.3 -2.43,-16.47 8.16,-30.69 21.3,-39.12 6.12,0.15 12.18,1.44 18.24,2.43 13.05,-6.33 27.03,-10.29 40.38,-15.72 2.28,-4.95 3.18,-10.41 5.79,-15.21 3.78,-4.23 9,-7.02 12.36,-11.67 5.52,-10.65 3.36,-24.12 11.07,-33.81 5.16,-6.63 11.61,-13.71 20.22,-15.21 6.27,1.23 11.97,5.04 18.51,5.07 7.05,-4.26 9.39,-12.75 12.48,-19.89 9.15,-25.5 15.33,-51.99 20.7,-78.51 2.55,-14.19 12.42,-25.35 17.31,-38.64 7.35,-19.5 9.6,-40.35 13.53,-60.66 2.55,-12.63 0.87,-25.59 3.03,-38.22 1.29,-8.31 8.37,-13.65 14.16,-18.99 7.77,-36.72 23.73,-72.18 23.22,-110.31 0.12,-9.54 -0.09,-19.8 5.1,-28.23 4.23,-7.71 12.51,-11.43 19.62,-15.9 10.14,-5.97 15.36,-17.1 22.02,-26.31 9.48,-15.72 26.25,-24.81 41.88,-33.36 30.06,-15.75 64.53,-18.78 97.89,-19.86 20.91,-0.66 42.81,5.58 58.38,19.95 7.11,11.07 0.18,27.72 11.25,36.96 9.42,6.27 21.84,6.6 30.69,14.04 9.03,7.92 16.65,17.73 27.48,23.46 10.44,6.24 22.68,8.07 34.59,9.21 0.96,9.57 1.92,19.17 3.18,28.71 10.65,2.67 21.63,3.27 32.55,4.02 12.84,0.51 23.46,8.58 35.61,11.79 31.26,9.45 65.22,0.6 96.09,12.09 12.63,3.99 24.63,14.07 38.64,9.84 13.74,-3.24 18.72,-19.08 31.5,-24.09 13.26,-5.82 29.01,-8.49 42.81,-2.82 11.49,4.74 18.87,15.51 24.6,26.1 15.33,28.71 26.85,59.49 45.09,86.64 7.44,10.38 8.58,23.34 13.02,34.98 5.1,6.96 14.52,9.54 19.26,17.04 10.83,15.39 20.13,31.77 30.3,47.61 -3.21,14.52 -6.57,29.34 -4.74,44.34 5.7,66.69 -5.94,133.65 -25.53,197.25 -13.86,38.04 -29.28,76.53 -30.42,117.54 0.66,17.52 -10.86,33.57 -6.39,51.21 3.75,16.53 8.19,32.94 11.28,49.59 14.67,18.12 33.51,32.46 48.15,50.67 1.26,-1.74 2.58,-3.48 3.9,-5.16 -0.18,-11.64 -0.24,-23.25 0.33,-34.86 4.5,8.1 10.02,16.68 9.03,26.4 -1.14,7.2 -5.76,13.17 -9.12,19.5 7.8,18.12 29.01,20.55 45.18,27.39 1.68,6.84 1.89,16.59 10.29,18.87 9.96,0.93 19.47,-4.8 29.52,-2.94 41.85,6.45 81.57,-11.82 120.33,-24.72 l 0,211.05 -3123,0 0,-418.23 c 6.21,8.34 16.74,10.26 26.25,12.36 6.06,10.26 12.03,20.55 18.09,30.84 5.16,-5.1 11.07,-9.63 14.97,-15.81 3.81,-7.68 1.74,-17.82 -4.98,-23.19 -6,-6.09 -17.13,-12.06 -12.3,-22.29 10.86,-0.06 21.72,4.53 32.52,2.19 10.83,-7.26 17.04,-20.76 30.21,-24.51 36.6,-11.67 72.33,-27.54 110.82,-31.8 13.11,-1.41 26.01,-4.29 38.61,-8.16 27.21,-8.61 56.16,-11.76 84.6,-9.69 22.83,1.44 42.6,13.74 62.97,22.83 -0.69,8.1 -2.28,16.98 2.64,24.21 6.57,10.32 12.87,20.88 19.74,31.05 34.47,12.12 71.37,14.58 107.64,12.45 0,-2.73 0,-5.46 0.03,-8.13 -8.49,-1.08 -16.98,-2.1 -25.47,-3.12 -5.34,-12.27 -7.71,-25.5 -8.82,-38.76 11.04,-6 23.91,-14.73 36.9,-9.75 12.93,9.09 20.88,24.15 22.98,39.69 6.54,-2.22 13.11,-4.38 19.68,-6.45 0.36,5.46 1.86,11.85 -3.45,15.57 -7.65,6.69 -12.3,15.78 -13.65,25.83 6.66,5.01 12.81,12.48 21.78,12.72 10.23,0.84 20.97,1.26 30,6.72 16.05,9.18 28.29,23.37 42.51,34.95 21.51,18.03 37.41,41.49 51.57,65.46 19.47,32.4 51.06,55.23 84.33,72 25.68,13.41 48.66,31.29 73.26,46.5 28.62,18.21 62.82,29.49 96.99,25.5 29.34,-3.6 58.08,-10.8 86.88,-17.25 14.28,-3.96 29.43,-6.33 42.45,-13.8 8.64,-5.07 10.92,-15.42 13.2,-24.39 2.55,3.3 5.19,6.57 7.92,9.78 14.88,-13.32 35.76,-13.71 52.95,-22.5 23.85,-11.79 44.7,-28.77 64.11,-46.8 40.5,-37.68 74.37,-81.66 111.93,-122.1 11.61,-12.45 21.51,-26.79 26.31,-43.29 6.09,-19.83 12.66,-40.59 28.05,-55.41 20.13,-22.11 49.98,-29.43 77.04,-39.3 42.06,-14.07 77.19,-42.06 112.68,-67.65 17.4,-13.56 37.53,-24.66 50.07,-43.35 10.29,-15.06 18.63,-31.32 28.05,-46.92 5.04,-7.53 3,-16.89 1.08,-25.05 -7.35,8.25 -12.78,18.9 -23.04,24.09 -14.52,7.77 -30.54,12.57 -44.43,21.54 -49.14,33.42 -93.72,73.23 -143.79,105.3 -25.2,15.33 -52.62,26.46 -79.59,38.19 -38.37,16.26 -76.35,33.6 -112.77,53.91 -43.65,20.64 -86.88,42.36 -131.97,59.7 -24.69,10.83 -46.17,28.56 -72.66,35.37 -29.49,7.2 -57.75,18.24 -86.4,28.11 -16.35,6.57 -34.71,1.8 -50.94,8.88 -26.64,9.39 -54.72,1.74 -81.06,-4.53 -12.48,-3.6 -24.12,2.49 -35.37,6.93 -5.82,-0.96 -11.22,-3.33 -16.71,-5.34 -18.48,-7.35 -38.4,-10.5 -56.52,-18.75 -19.41,-8.43 -34.05,-24.18 -50.82,-36.54 -37.56,-28.95 -75.45,-59.49 -100.32,-100.59 -14.82,-22.53 -19.08,-49.74 -22.08,-76.02 -3.12,-32.46 -7.26,-65.61 0.09,-97.83 7.05,-34.5 25.32,-65.82 48.81,-91.71 22.77,-25.23 46.44,-49.86 72.96,-71.19 12.39,-10.26 27.3,-17.94 43.47,-19.59 34.56,-4.89 67.59,10.41 101.97,10.29 20.79,-0.45 39.48,10.8 60.12,11.43 8.82,0.33 17.07,-3.24 25.11,-6.42 9.6,8.76 21.48,15.81 34.95,15.27 18.78,-0.69 38.31,2.31 56.34,-4.26 48.54,-15.36 99.42,-22.83 146.85,-41.73 51.03,-19.71 99.6,-45.12 146.97,-72.33 12.12,-6.48 25.02,-16.02 39.54,-11.49 17.01,2.64 24.27,26.76 11.25,38.16 -23.28,22.83 -48.9,43.14 -72.84,65.22 -35.4,32.67 -70.38,65.73 -105.78,98.37 -10.68,9.72 -22.65,18 -35.49,24.6 -32.4,17.31 -66.63,30.87 -99.06,48.12 -37.92,20.16 -71.73,47.22 -102.24,77.28 -10.41,10.59 -23.73,18.99 -30.33,32.79 -9.93,23.13 -31.02,38.34 -49.14,54.78 0.72,1.83 2.16,5.46 2.88,7.29 8.91,-1.53 18.48,-1.71 26.43,-6.51 8.79,-5.1 16.65,-11.61 25.02,-17.37 33.12,-22.77 70.62,-39.84 99.27,-68.61 15.75,-15.24 29.61,-32.94 48.69,-44.25 25.56,-15.48 55.32,-21.69 82.05,-34.71 10.74,-5.25 20.34,-12.51 30.99,-17.88 31.77,-15.96 65.34,-28.47 95.4,-47.67 22.32,-14.31 42.06,-32.16 62.28,-49.2 29.61,-25.26 59.85,-49.89 87.18,-77.67 27.3,-27.6 53.16,-57.63 86.85,-77.76 15.72,-9.18 30,-20.61 45.54,-30.03 19.77,-12.21 40.05,-23.58 59.37,-36.54 17.97,-12.54 33.36,-30.45 55.8,-34.98 54.03,-12.87 110.22,-11.16 164.61,-21.84 14.37,-3.21 29.1,-3.45 43.74,-2.73 4.95,3.72 9.48,10.11 16.53,8.43 9.81,-1.02 19.74,-2.13 29.31,-4.77 9.42,-5.25 6.72,-24.84 -5.46,-24.66 -12.96,-1.11 -25.89,1.59 -38.82,0.27 -16.17,-1.47 -32.4,-2.97 -48.24,-6.51 -7.29,-1.41 -9.75,-9.51 -14.01,-14.55 z"
     id="path12"
     inkscape:connector-curvature="0"
     style="fill:#fefefe" />
  <path
     d="m 3011.73,1623.33 c 37.05,-4.14 74.16,-7.41 111.27,-11.04 l 0,404.07 c -24.96,-4.89 -50.94,-9.69 -72.72,-23.49 -23.1,-15.48 -37.05,-42.66 -39.06,-70.08 -1.38,-15.24 5.22,-29.58 6.06,-44.64 0.93,-12.93 -0.84,-25.8 -2.52,-38.55 -8.22,-48.6 2.82,-99.81 -15.63,-146.76 -4.17,-13.38 -15.57,-25.11 -13.23,-39.93 2.04,-13.38 11.16,-28.17 25.83,-29.58 z"
     id="path14"
     inkscape:connector-curvature="0"
     style="fill:#fefefe" />
</svg>
